<svg width="168" height="41" viewBox="0 0 168 41" fill="none" xmlns="http://www.w3.org/2000/svg">
<path d="M41.3236 0.0488281H45.2257H52.6486V7.28074V18.7965V26.4891V34.1356H45.2257V26.4891V18.7965V7.47366H41.5113V18.7965V26.4891V34.1356H34.0865V26.4891V18.7965V7.47366H30.3741V18.7965V26.4891V34.1356H22.9492V26.4891V18.7965V7.28074V0.0488281H29.801H33.7031H41.3236Z" fill="white"/>
<path d="M62.435 0.0488281H67.1583H74.9214V1.06634V6.84767V10.3165H67.4966V7.47366H63.7842V11.1861L74.9214 19.2859V23.4517V27.1055V28.9555V34.1356H67.1583H62.435H56.3594V28.2617V27.1055V22.9983H61.1256H63.7842V26.7107H67.4966V25.2786V22.9983L56.3594 14.8985L56.3594 10.3165V6.84767V4.44264V1.06634V0.0488281H62.435Z" fill="white"/>
<path d="M19.2371 7.47366H11.5227H7.42483V11.1861H14.8497V18.6109H7.42483V26.4891V34.1356H0V26.4891V18.7965V7.28074V0.0488281H7.62057H11.5227H19.2371V7.47366Z" fill="white"/>
<path d="M139.168 21.5494V30.5152C139.168 31.5142 139.351 32.2051 139.717 32.5881C140.084 32.9544 140.733 33.1375 141.665 33.1375H143.189V34.1365H141.49C140.308 34.1365 139.434 33.8618 138.868 33.3123C138.319 32.7463 138.044 31.8139 138.044 30.5152V21.5494H135.996V20.5754H138.044V17.1289H139.168V20.5754H143.189V21.5494H139.168Z" fill="white"/>
<path d="M129.889 23.3707C130.222 22.3717 130.814 21.6141 131.663 21.098C132.512 20.5652 133.594 20.2988 134.909 20.2988V21.4726H134.535C133.203 21.4726 132.096 21.8556 131.213 22.6215C130.331 23.3707 129.889 24.6028 129.889 26.3177V34.1347H128.766V20.5735H129.889V23.3707Z" fill="white"/>
<path d="M118.637 34.3342C117.372 34.3342 116.231 34.0511 115.215 33.485C114.2 32.919 113.401 32.1114 112.818 31.0625C112.252 29.9969 111.969 28.7565 111.969 27.3413C111.969 25.9428 112.26 24.719 112.843 23.6701C113.426 22.6045 114.225 21.797 115.24 21.2476C116.273 20.6815 117.422 20.3984 118.687 20.3984C119.952 20.3984 121.093 20.6815 122.108 21.2476C123.124 21.797 123.915 22.5962 124.481 23.6451C125.064 24.694 125.355 25.9261 125.355 27.3413C125.355 28.7565 125.064 29.9969 124.481 31.0625C123.898 32.1114 123.091 32.919 122.058 33.485C121.043 34.0511 119.902 34.3342 118.637 34.3342ZM118.637 33.3352C119.619 33.3352 120.535 33.1188 121.384 32.6859C122.25 32.2363 122.941 31.562 123.457 30.6629C123.973 29.7639 124.231 28.6567 124.231 27.3413C124.231 26.0427 123.973 24.9438 123.457 24.0447C122.941 23.1456 122.258 22.4796 121.409 22.0467C120.56 21.5972 119.644 21.3724 118.662 21.3724C117.68 21.3724 116.764 21.5972 115.915 22.0467C115.082 22.4796 114.408 23.1456 113.892 24.0447C113.376 24.9438 113.118 26.0427 113.118 27.3413C113.118 28.6567 113.367 29.7639 113.867 30.6629C114.383 31.562 115.057 32.2363 115.89 32.6859C116.739 33.1188 117.655 33.3352 118.637 33.3352Z" fill="white"/>
<path d="M96.9871 24.1446C97.3701 23.0457 98.061 22.1466 99.06 21.4474C100.076 20.7481 101.299 20.3984 102.731 20.3984C103.997 20.3984 105.12 20.6815 106.103 21.2476C107.102 21.8137 107.876 22.6212 108.425 23.6701C108.992 24.719 109.275 25.9428 109.275 27.3413C109.275 28.7399 108.992 29.972 108.425 31.0375C107.876 32.0865 107.102 32.9023 106.103 33.485C105.12 34.0511 103.997 34.3342 102.731 34.3342C101.316 34.3342 100.101 33.9845 99.085 33.2852C98.086 32.5693 97.3867 31.6702 96.9871 30.588V40.5278H95.8633V20.5733H96.9871V24.1446ZM108.126 27.3413C108.126 26.1093 107.893 25.0437 107.426 24.1446C106.96 23.2455 106.303 22.5629 105.453 22.0967C104.621 21.6139 103.655 21.3724 102.556 21.3724C101.508 21.3724 100.558 21.6222 99.7093 22.1217C98.8602 22.6045 98.1942 23.3038 97.7114 24.2195C97.2285 25.1186 96.9871 26.1592 96.9871 27.3413C96.9871 28.5401 97.2285 29.5974 97.7114 30.5131C98.1942 31.4122 98.8602 32.1114 99.7093 32.6109C100.558 33.0938 101.508 33.3352 102.556 33.3352C103.655 33.3352 104.621 33.0938 105.453 32.6109C106.303 32.1281 106.96 31.4371 107.426 30.5381C107.893 29.639 108.126 28.5734 108.126 27.3413Z" fill="white"/>
<path d="M87.1011 34.3094C85.969 34.3094 84.9783 34.1096 84.1292 33.71C83.28 33.3105 82.6141 32.7693 82.1312 32.0867C81.665 31.4041 81.3986 30.6465 81.332 29.814H82.5058C82.639 30.7298 83.0636 31.5456 83.7795 32.2615C84.5121 32.9775 85.6193 33.3354 87.1011 33.3354C87.9669 33.3354 88.7161 33.1773 89.3488 32.8609C89.9982 32.5446 90.4977 32.1117 90.8473 31.5622C91.1969 31.0128 91.3718 30.4051 91.3718 29.7391C91.3718 28.89 91.1636 28.2157 90.7474 27.7162C90.3478 27.2167 89.84 26.8421 89.224 26.5923C88.6246 26.3426 87.8087 26.0762 86.7765 25.7931C85.6443 25.4935 84.7286 25.1938 84.0293 24.8941C83.3466 24.5944 82.7639 24.1365 82.2811 23.5205C81.8149 22.8878 81.5818 22.0303 81.5818 20.9481C81.5818 20.1156 81.7982 19.3581 82.2311 18.6754C82.6807 17.9762 83.3133 17.4267 84.1292 17.0271C84.945 16.6275 85.8857 16.4277 86.9513 16.4277C88.4997 16.4277 89.7484 16.8107 90.6974 17.5766C91.6465 18.3424 92.2126 19.2831 92.3957 20.3987H91.1969C91.097 19.9491 90.8723 19.4913 90.5226 19.0251C90.1896 18.5589 89.7068 18.1759 89.0741 17.8763C88.4581 17.5599 87.7172 17.4017 86.8514 17.4017C85.6859 17.4017 84.7036 17.7264 83.9044 18.3757C83.1052 19.0084 82.7056 19.8576 82.7056 20.9231C82.7056 21.7723 82.9137 22.4549 83.33 22.971C83.7462 23.4705 84.254 23.8535 84.8534 24.1199C85.4695 24.3696 86.2936 24.6277 87.3259 24.8941C88.4747 25.2104 89.3821 25.5184 90.0481 25.8181C90.7307 26.1012 91.3052 26.559 91.7713 27.1917C92.2542 27.8078 92.4956 28.6486 92.4956 29.7141C92.4956 30.4967 92.2875 31.2376 91.8712 31.9369C91.455 32.6361 90.839 33.2106 90.0231 33.6601C89.224 34.093 88.25 34.3094 87.1011 34.3094Z" fill="white"/>
<path d="M167.999 16.6035V34.1356H166.875V16.6035H167.999Z" fill="white"/>
<path d="M161.159 29.641H152.842L151.169 34.1364H149.945L156.389 17.0039H157.637L164.056 34.1364H162.832L161.159 29.641ZM160.809 28.6919L157.013 18.4774L153.192 28.6919H160.809Z" fill="white"/>
</svg>
