<svg width="185" height="45" viewBox="0 0 185 45" fill="none" xmlns="http://www.w3.org/2000/svg">
<rect width="185" height="45" fill="#C1C1C1"/>
<g id="Slide 16:9 - 3">
<rect width="1920" height="8993" transform="translate(-120 -8766)" fill="#FEFEFE"/>
<g id="Group 1000005404">
<g id="Group 18625">
<path id="Vector" d="M45.5071 0H49.804H57.9779V7.96368V20.6447V29.1156V37.5358H49.804V29.1156V20.6447V8.17612H45.7137V20.6447V29.1156V37.5358H37.5376V29.1156V20.6447V8.17612H33.4496V20.6447V29.1156V37.5358H25.2734V29.1156V20.6447V7.96368V0H32.8185H37.1154H45.5071Z" fill="#111827"/>
<path id="s" d="M68.7529 0H73.9542H82.5028V1.12047V7.48679V11.3066H74.3267V8.17612H70.2386V12.2642L82.5028 21.1836V25.7709V29.7944V31.8316V37.5358H73.9542H68.7529H62.0625V31.0677V29.7944V25.2717H67.311H70.2386V29.3597H74.3267V27.7826V25.2717L62.0625 16.3522L62.0625 11.3066V7.48679V4.83841V1.12047V0H68.7529Z" fill="#111827"/>
<path id="Vector_2" d="M21.1836 8.17612H12.6886H8.17612V12.2642H16.3522V20.4403H8.17612V29.1156V37.5358H0V29.1156V20.6447V7.96368V0H8.39167H12.6886H21.1836V8.17612Z" fill="#111827"/>
</g>
<g id="Sport">
<path id="Vector_3" d="M153.251 23.6754V33.5484C153.251 34.6485 153.452 35.4094 153.856 35.8311C154.259 36.2344 154.974 36.4361 156.001 36.4361H157.678V37.5361H155.808C154.506 37.5361 153.544 37.2336 152.92 36.6286C152.315 36.0052 152.013 34.9785 152.013 33.5484V23.6754H149.758V22.6028H152.013V18.8076H153.251V22.6028H157.678V23.6754H153.251Z" fill="#111827"/>
<path id="Vector_4" d="M143.031 25.6825C143.397 24.5824 144.048 23.7482 144.983 23.1799C145.918 22.5932 147.11 22.2998 148.558 22.2998V23.5924H148.146C146.679 23.5924 145.46 24.0141 144.488 24.8574C143.516 25.6825 143.031 27.0392 143.031 28.9277V37.5356H141.793V22.6023H143.031V25.6825Z" fill="#111827"/>
<path id="Vector_5" d="M130.64 37.756C129.246 37.756 127.99 37.4443 126.872 36.8209C125.754 36.1976 124.874 35.3084 124.232 34.1533C123.609 32.9799 123.297 31.614 123.297 30.0556C123.297 28.5155 123.618 27.1679 124.259 26.0129C124.901 24.8395 125.781 23.9502 126.9 23.3452C128.036 22.7218 129.301 22.4102 130.695 22.4102C132.088 22.4102 133.344 22.7218 134.462 23.3452C135.581 23.9502 136.452 24.8303 137.075 25.9854C137.717 27.1404 138.038 28.4972 138.038 30.0556C138.038 31.614 137.717 32.9799 137.075 34.1533C136.433 35.3084 135.544 36.1976 134.407 36.8209C133.289 37.4443 132.033 37.756 130.64 37.756ZM130.64 36.6559C131.722 36.6559 132.73 36.4176 133.665 35.9409C134.618 35.4459 135.379 34.7033 135.948 33.7133C136.516 32.7232 136.8 31.504 136.8 30.0556C136.8 28.6255 136.516 27.4154 135.948 26.4254C135.379 25.4353 134.627 24.7019 133.692 24.2253C132.757 23.7302 131.749 23.4827 130.667 23.4827C129.586 23.4827 128.577 23.7302 127.642 24.2253C126.725 24.7019 125.983 25.4353 125.414 26.4254C124.846 27.4154 124.562 28.6255 124.562 30.0556C124.562 31.504 124.837 32.7232 125.387 33.7133C125.955 34.7033 126.698 35.4459 127.615 35.9409C128.55 36.4176 129.558 36.6559 130.64 36.6559Z" fill="#111827"/>
<path id="Vector_6" d="M106.8 26.5354C107.222 25.3253 107.983 24.3353 109.083 23.5652C110.201 22.7952 111.549 22.4102 113.125 22.4102C114.519 22.4102 115.756 22.7218 116.838 23.3452C117.938 23.9686 118.791 24.8578 119.396 26.0129C120.019 27.1679 120.331 28.5155 120.331 30.0556C120.331 31.5957 120.019 32.9524 119.396 34.1258C118.791 35.2809 117.938 36.1792 116.838 36.8209C115.756 37.4443 114.519 37.756 113.125 37.756C111.567 37.756 110.229 37.371 109.11 36.6009C108.01 35.8126 107.24 34.8225 106.8 33.6308V44.5764H105.562V22.6027H106.8V26.5354ZM119.066 30.0556C119.066 28.6988 118.809 27.5254 118.296 26.5354C117.782 25.5453 117.058 24.7936 116.123 24.2803C115.206 23.7486 114.143 23.4827 112.933 23.4827C111.778 23.4827 110.733 23.7577 109.798 24.3078C108.863 24.8395 108.129 25.6095 107.598 26.6179C107.066 27.6079 106.8 28.7538 106.8 30.0556C106.8 31.3756 107.066 32.5399 107.598 33.5483C108.129 34.5383 108.863 35.3084 109.798 35.8584C110.733 36.3901 111.778 36.6559 112.933 36.6559C114.143 36.6559 115.206 36.3901 116.123 35.8584C117.058 35.3267 117.782 34.5658 118.296 33.5758C118.809 32.5857 119.066 31.4123 119.066 30.0556Z" fill="#111827"/>
<path id="Vector_7" d="M95.9153 37.7282C94.6686 37.7282 93.5777 37.5082 92.6427 37.0682C91.7076 36.6281 90.9742 36.0323 90.4425 35.2806C89.9292 34.5288 89.6358 33.6946 89.5625 32.7779H90.8551C91.0017 33.7863 91.4693 34.6847 92.2576 35.4731C93.0644 36.2614 94.2836 36.6556 95.9153 36.6556C96.8687 36.6556 97.6938 36.4815 98.3905 36.1331C99.1055 35.7847 99.6556 35.3081 100.041 34.703C100.426 34.098 100.618 33.4288 100.618 32.6954C100.618 31.7604 100.389 31.0178 99.9306 30.4678C99.4905 29.9178 98.9313 29.5052 98.253 29.2302C97.5929 28.9552 96.6946 28.6619 95.5578 28.3502C94.3111 28.0202 93.3027 27.6901 92.5327 27.3601C91.781 27.0301 91.1393 26.5259 90.6076 25.8475C90.0942 25.1508 89.8375 24.2066 89.8375 23.0149C89.8375 22.0982 90.0759 21.264 90.5526 20.5122C91.0476 19.7422 91.7443 19.1372 92.6427 18.6971C93.5411 18.2571 94.5769 18.0371 95.7503 18.0371C97.4554 18.0371 98.8305 18.4588 99.8756 19.3022C100.921 20.1456 101.544 21.1814 101.746 22.4098H100.426C100.316 21.9148 100.068 21.4106 99.6831 20.8973C99.3164 20.3839 98.7847 19.9622 98.088 19.6322C97.4096 19.2838 96.5937 19.1097 95.6403 19.1097C94.3569 19.1097 93.2752 19.4672 92.3952 20.1822C91.5151 20.8789 91.0751 21.814 91.0751 22.9874C91.0751 23.9224 91.3043 24.6741 91.7626 25.2425C92.221 25.7925 92.7802 26.2142 93.4402 26.5076C94.1186 26.7826 95.0261 27.0668 96.1629 27.3601C97.4279 27.7085 98.4272 28.0477 99.1605 28.3777C99.9122 28.6894 100.545 29.1936 101.058 29.8903C101.59 30.5686 101.856 31.4945 101.856 32.6679C101.856 33.5296 101.626 34.3455 101.168 35.1155C100.71 35.8856 100.031 36.5181 99.133 37.0131C98.253 37.4898 97.1804 37.7282 95.9153 37.7282Z" fill="#111827"/>
</g>
<g id="AI">
<path id="Vector_8" d="M184.999 18.2295V37.5355H183.762V18.2295H184.999Z" fill="#111827"/>
<path id="Vector_9" d="M177.465 32.5857H168.307L166.465 37.536H165.117L172.213 18.6699H173.588L180.656 37.536H179.308L177.465 32.5857ZM177.08 31.5406L172.9 20.2925L168.692 31.5406H177.08Z" fill="#111827"/>
</g>
</g>
</g>
</svg>
